<svg width="26" height="26" xmlns="http://www.w3.org/2000/svg">

 <g>
  <title>background</title>
  <rect fill="none" id="canvas_background" height="402" width="582" y="-1" x="-1"/>
 </g>
 <g>
  <title>Layer 1</title>
  <path id="svg_1" fill="#d34c92" d="m24.962891,10.24121c-0.087891,-0.27148 -0.32226,-0.46973 -0.605471,-0.51074l-7.382811,-1.073239l-3.30176,-6.69434c-0.2539,-0.51172 -1.0918,-0.51172 -1.345699,0l-3.301761,6.69434l-7.38281,1.073239c-0.2832,0.04101 -0.51758,0.239261 -0.60547,0.51074c-0.08887,0.27149 -0.01465,0.56934 0.18945,0.76856l5.34278,5.210929l-1.26172,7.357431c-0.04785,0.28125 0.06738,0.566399 0.29883,0.733389c0.22949,0.168951 0.53515,0.189461 0.79003,0.057621l6.60352,-3.473631l6.603519,3.473631c0.11035,0.057619 0.230461,0.085939 0.349611,0.085939c0.00683,0.000971 0.014639,0.000971 0.019529,0c0.415039,0 0.75,-0.335939 0.75,-0.75c0,-0.103519 -0.02051,-0.203131 -0.058599,-0.292971l-1.2334,-7.19141l5.342779,-5.210929c0.2041,-0.199221 0.27832,-0.49707 0.189451,-0.76856zm-6.86133,5.18067c-0.17676,0.172851 -0.257811,0.42089 -0.21582,0.66406l1.071289,6.248041l-5.607419,-2.950191c-0.109381,-0.057619 -0.22949,-0.085939 -0.34961,-0.085939s-0.24023,0.02832 -0.34961,0.085939l-5.607419,2.950191l1.07129,-6.248041c0.04199,-0.24317 -0.03906,-0.491209 -0.21582,-0.66406l-4.53711,-4.42579l6.26953,-0.91113c0.24512,-0.03516 0.45605,-0.18945 0.56543,-0.41016l2.80371,-5.68457l2.80371,5.68457c0.10938,0.22071 0.32031,0.375 0.565431,0.41016l6.269529,0.91113l-4.537109,4.42579z"/>
 </g>
</svg>