<svg width="26" height="26" xmlns="http://www.w3.org/2000/svg">

 <g>
  <title>background</title>
  <rect fill="none" id="canvas_background" height="402" width="582" y="-1" x="-1"/>
 </g>
 <g>
  <title>Layer 1</title>
  <path id="svg_1" fill="#f2cbde" d="m25,13c0,-6.6167 -5.382811,-12 -12,-12s-12,5.3833 -12,12c0,3.38361 1.41321,6.43866 3.67365,8.62225c0.05291,0.068911 0.1156,0.12476 0.18896,0.17182c2.14124,1.982851 4.99567,3.205931 8.13739,3.205931s5.996149,-1.22308 8.13739,-3.205931c0.07336,-0.04706 0.136049,-0.102909 0.188959,-0.17182c2.260441,-2.18359 3.673651,-5.23864 3.673651,-8.62225zm-12,-10.5c5.790039,0 10.5,4.71045 10.5,10.5c0,2.45496 -0.85327,4.710819 -2.27026,6.500851c-0.65052,-2.09783 -2.507629,-3.74011 -5.028141,-4.495781c1.3736,-0.99408 2.272032,-2.60462 2.272032,-4.4245c0,-3.01416 -2.45508,-5.46631 -5.473631,-5.46631s-5.47363,2.45215 -5.47363,5.46631c0,1.81988 0.89843,3.43042 2.27203,4.4245c-2.52051,0.755671 -4.37762,2.397951 -5.02814,4.495781c-1.41699,-1.790031 -2.27026,-4.045891 -2.27026,-6.500851c0,-5.78955 4.70996,-10.5 10.5,-10.5zm-3.97363,8.08057c0,-2.18702 1.78222,-3.96631 3.97363,-3.96631s3.973631,1.77929 3.973631,3.96631s-1.782221,3.96631 -3.973631,3.96631s-3.97363,-1.7793 -3.97363,-3.96631zm-2.99561,10.2514c0.22547,-2.749941 3.141601,-4.785089 6.96924,-4.785089s6.743771,2.035149 6.96924,4.785089c-1.85614,1.653561 -4.29352,2.66803 -6.96924,2.66803s-5.1131,-1.014469 -6.96924,-2.66803z"/>
 </g>
</svg>