<svg width="26" height="26" xmlns="http://www.w3.org/2000/svg">

 <g>
  <title>background</title>
  <rect fill="none" id="canvas_background" height="402" width="582" y="-1" x="-1"/>
 </g>
 <g>
  <title>Layer 1</title>
  <path id="svg_2" fill="#d34c92" d="m24.893551,12.51953c-2.594721,-4.33594 -6.262691,-6.26953 -11.893551,-6.26953s-9.29883,1.93359 -11.89355,6.26953c-0.09028,0.15076 -0.10975,0.31897 -0.08851,0.48047c-0.02124,0.1615 -0.00177,0.32971 0.08851,0.48047c2.59472,4.33594 6.26269,6.26953 11.89355,6.26953s9.29883,-1.93359 11.893551,-6.26953c0.090279,-0.15076 0.109749,-0.31897 0.088509,-0.48047c0.02124,-0.1615 0.00177,-0.32971 -0.088509,-0.48047zm-11.893551,4.98047c-2.48145,0 -4.5,-2.01855 -4.5,-4.5s2.01855,-4.5 4.5,-4.5s4.5,2.01855 4.5,4.5s-2.01855,4.5 -4.5,4.5zm-10.42719,-4.5c1.30469,-2.09558 3.20234,-4.1637 7.01972,-4.93274c-1.56433,1.08399 -2.59253,2.88953 -2.59253,4.93274s1.0282,3.848749 2.59253,4.932739c-3.81738,-0.769039 -5.71503,-2.837159 -7.01972,-4.932739zm13.834661,4.932739c1.564329,-1.08399 2.592529,-2.889529 2.592529,-4.932739s-1.0282,-3.84875 -2.592529,-4.93274c3.817379,0.76904 5.715029,2.83716 7.01972,4.93274c-1.304691,2.09558 -3.202341,4.1637 -7.01972,4.932739z"/>
  <path id="svg_3" fill="#d34c92" d="m15.1123,12.13086l-0.1123,0.01367c-0.74805,0 -1.37012,-0.58887 -1.41504,-1.34082c-0.01269,-0.20019 -0.10449,-0.38769 -0.25586,-0.51953c-0.15234,-0.13184 -0.350579,-0.188479 -0.550779,-0.18262c-1.511721,0.11621 -2.695311,1.38965 -2.695311,2.89844c0,1.6084 1.30859,2.91699 2.91699,2.91699s2.91699,-1.30859 2.91699,-2.91699c0,-0.06055 -0.00586,-0.12012 -0.01465,-0.1748c-0.03027,-0.40821 -0.41308,-0.71875 -0.79004,-0.69434z"/>
 </g>
</svg>